# xmcd
#
# Track frame offsets: 
#        150
#        6692
#        24264
#        37876
#        40730
#        52837
#        65591
#        70685
#        84297
#        108082
#        127622
#
# Disc length: 2007 seconds
#
# Revision: 3
# Processed by: cddbd v1.5.2PL0 Copyright (c) Steve Scherf et al.
# Submitted via: ExactAudioCopyFreeDBPlugin 1.0
#
DISCID=7807d50b
DTITLE=The Roots - ...And Then You Shoot Your Cousin
DYEAR=2014
DGENRE=Hip-Hop
TTITLE0=Theme From Middle Of The Night
TTITLE1=Never Feat. Patty Crash
TTITLE2=When The People Cheer Feat. Modesty Lycan and Greg Porn
TTITLE3=The Devil
TTITLE4=Black Rock Feat. Dice Raw
TTITLE5=Understand Feat. Dice Raw and Greg Porn
TTITLE6=Dies Irae
TTITLE7=The Coming Feat. Mercedes Martinez
TTITLE8=The Dark (Trinity) Feat. Dice Raw and Greg Porn
TTITLE9=The Unraveling Feat. Raheem DeVaughn
TTITLE10=Tomorrow Feat. Raheem DeVaughn
EXTD=
EXTT0=
EXTT1=
EXTT2=
EXTT3=
EXTT4=
EXTT5=
EXTT6=
EXTT7=
EXTT8=
EXTT9=
EXTT10=
PLAYORDER=
